<svg width="13" height="12" viewBox="0 0 13 12" fill="none" xmlns="http://www.w3.org/2000/svg">
<path d="M12 1.24227C11.6456 1.8014 11.2897 2.35928 10.9375 2.92028C10.8572 3.04833 10.7541 3.12847 10.6025 3.146C10.5484 3.15226 10.4959 3.17731 10.4422 3.17731C10.0984 3.19328 9.85531 3.37391 9.6175 3.6156C8.34343 4.90855 7.055 6.18709 5.77093 7.47034C5.74125 7.50164 5.71 7.52888 5.68781 7.55017L4.44812 6.31075C4.46968 6.28853 4.49812 6.25753 4.52781 6.22748C5.89718 4.85835 7.26583 3.4887 8.63375 2.11853C8.6879 2.06006 8.72629 1.98874 8.74531 1.91128C8.79156 1.73033 8.82312 1.54531 8.85906 1.36186C8.8672 1.30782 8.88677 1.25616 8.91647 1.21032C8.94617 1.16448 8.9853 1.12552 9.03125 1.09607C9.57125 0.752953 10.111 0.409628 10.6506 0.0660936C10.6859 0.0435531 10.7222 0.0225779 10.7578 0.000976562H10.9453C11.035 0.0729809 11.1309 0.138724 11.2134 0.218242C11.4072 0.403993 11.597 0.593708 11.7828 0.78739C11.8622 0.870038 11.9281 0.965835 12.0016 1.05537L12 1.24227Z" fill="#0773AC"/>
<path d="M0 10.0299C0.0190625 9.95128 0.0368749 9.87333 0.0574999 9.79444C0.144375 9.4651 0.319687 9.19023 0.560312 8.95105C1.28031 8.23497 1.99854 7.51754 2.715 6.79875C2.74625 6.76744 2.78063 6.74396 2.82063 6.7114C2.77688 6.6635 2.745 6.63126 2.71594 6.59682C2.65759 6.52994 2.62681 6.44335 2.62983 6.35458C2.63285 6.26582 2.66944 6.18152 2.73219 6.11877C2.79599 6.05711 2.88042 6.02144 2.96904 6.01872C3.05766 6.016 3.14411 6.04642 3.21156 6.10406C3.23219 6.12159 3.25094 6.14163 3.27031 6.16104C4.12635 7.01674 4.98125 7.87338 5.835 8.73097C5.90614 8.80584 5.9543 8.89962 5.97375 9.00114C5.99938 9.14828 5.92156 9.26505 5.78469 9.33204C5.64781 9.39904 5.51938 9.37681 5.4025 9.28289C5.36938 9.25597 5.34 9.22435 5.2725 9.16111C5.24844 9.20244 5.23219 9.25065 5.19969 9.28321C4.46927 10.0162 3.73771 10.7478 3.005 11.4781C2.32812 12.149 1.28125 12.1762 0.579375 11.5448C0.282126 11.2804 0.0855525 10.9209 0.0231252 10.5276C0.0171287 10.5019 0.00940261 10.4766 0 10.4519V10.0299ZM3.28125 8.33932C3.20094 8.38096 3.10375 8.40601 3.04219 8.46674C2.44052 9.05864 1.84312 9.65419 1.25 10.2534C1.20567 10.2954 1.17389 10.3489 1.15822 10.4079C1.14254 10.467 1.14359 10.5292 1.16125 10.5877C1.23531 10.8579 1.55094 10.9415 1.755 10.738C2.34875 10.1504 2.93812 9.55776 3.52812 8.96639C3.55814 8.93572 3.58304 8.90041 3.60188 8.86183C3.71563 8.63047 3.54938 8.365 3.28125 8.3387V8.33932Z" fill="#0773AC"/>
<path d="M2.27344 0.000312891C2.46719 0.0550988 2.66906 0.090162 2.85281 0.167802C3.29612 0.35262 3.65935 0.689391 3.87753 1.11789C4.09572 1.54639 4.15464 2.03867 4.04375 2.50669C4.03341 2.53923 4.03303 2.57412 4.04267 2.60688C4.0523 2.63963 4.07151 2.66874 4.09781 2.69046C4.56344 3.15233 5.0274 3.61566 5.48969 4.08046C5.52094 4.11176 5.54812 4.1415 5.57125 4.16592L4.16656 5.57032C4.1425 5.54747 4.11125 5.51898 4.08125 5.48892C3.61708 5.02559 3.15354 4.56174 2.69063 4.09736C2.66891 4.07107 2.63983 4.05189 2.60714 4.04229C2.57445 4.03269 2.53964 4.03312 2.50719 4.04352C1.32719 4.31494 0.194687 3.52978 0.02 2.32605C0.0153711 2.30781 0.00866023 2.29016 0 2.27346V1.82828C0.00886824 1.8116 0.0154886 1.79381 0.0196877 1.77538C0.0325002 1.61603 0.0934376 1.48861 0.251563 1.42788C0.415 1.36527 0.54375 1.42788 0.666563 1.5362C0.897813 1.73906 1.13531 1.93535 1.36562 2.13102L2.13 1.36683C2.11375 1.34617 2.095 1.32144 2.075 1.29764C1.88062 1.06911 1.68312 0.843077 1.4925 0.611411C1.3075 0.386632 1.42063 0.0842138 1.70563 0.0278625C1.74656 0.0197229 1.78719 0.00939188 1.82812 0L2.27344 0.000312891Z" fill="#0773AC"/>
<path d="M12 10.1711C11.9916 10.204 11.9809 10.2368 11.9753 10.2703C11.9528 10.4115 11.8866 10.5208 11.7478 10.5715C11.6091 10.6222 11.4878 10.5928 11.3778 10.4989C11.1695 10.3215 10.9611 10.1441 10.7528 9.96666L10.6328 9.86648L9.87031 10.635C10.0637 10.863 10.2628 11.1021 10.4672 11.3363C10.5722 11.4565 10.6319 11.583 10.5731 11.7433C10.5106 11.908 10.3791 11.9609 10.2162 11.9806C8.96281 12.134 7.87906 11.1694 7.90375 9.91438C7.90869 9.77032 7.9271 9.62704 7.95875 9.48642C7.96788 9.45546 7.96774 9.4225 7.95835 9.39161C7.94897 9.36073 7.93074 9.33328 7.90593 9.31267C7.44562 8.85623 6.98843 8.39696 6.52937 7.93927C6.49375 7.90358 6.45343 7.8729 6.42468 7.84785L7.85999 6.41309C7.87505 6.44688 7.8946 6.47847 7.91812 6.507C8.37531 6.96689 8.83531 7.42334 9.29093 7.88448C9.35812 7.95273 9.41437 7.9737 9.51375 7.95241C10.6956 7.69852 11.8028 8.47398 11.9794 9.67269C11.9849 9.69882 11.9917 9.72464 12 9.75002V10.1711Z" fill="#0773AC"/>
</svg>
